<svg width="45" height="45" viewBox="0 0 45 45" fill="none" xmlns="http://www.w3.org/2000/svg">
<path d="M27.3473 14.2337C27.891 13.6949 27.8949 12.8173 27.3561 12.2737C26.8172 11.73 25.9397 11.7261 25.396 12.2649L22.0794 15.5521C20.8302 16.7901 19.8092 17.802 19.0852 18.7036C18.3323 19.6411 17.7872 20.5927 17.6416 21.735C17.5778 22.2358 17.5778 22.7427 17.6416 23.2435C17.7872 24.3858 18.3323 25.3374 19.0852 26.2749C19.8092 27.1765 20.8302 28.1884 22.0794 29.4264L25.396 32.7136C25.9397 33.2524 26.8172 33.2485 27.3561 32.7049C27.8949 32.1612 27.891 31.2836 27.3473 30.7448L24.0894 27.5158C22.7672 26.2053 21.8602 25.3034 21.2465 24.5392C20.6503 23.7969 20.4458 23.3201 20.3914 22.8931C20.3572 22.6249 20.3572 22.3536 20.3914 22.0855C20.4458 21.6584 20.6503 21.1816 21.2465 20.4393C21.8602 19.6751 22.7672 18.7732 24.0894 17.4627L27.3473 14.2337Z" fill="#007DFC"/>
</svg>
