<svg width="45" height="45" viewBox="0 0 45 45" fill="none" xmlns="http://www.w3.org/2000/svg">
<path d="M17.6527 14.2337C17.109 13.6949 17.1051 12.8173 17.6439 12.2737C18.1828 11.73 19.0603 11.7261 19.604 12.2649L22.9206 15.5521C24.1698 16.7901 25.1908 17.802 25.9148 18.7036C26.6677 19.6411 27.2128 20.5927 27.3584 21.735C27.4222 22.2358 27.4222 22.7427 27.3584 23.2435C27.2128 24.3858 26.6677 25.3374 25.9148 26.2749C25.1908 27.1765 24.1698 28.1884 22.9206 29.4264L19.604 32.7136C19.0603 33.2524 18.1828 33.2485 17.6439 32.7049C17.1051 32.1612 17.109 31.2836 17.6527 30.7448L20.9106 27.5158C22.2328 26.2053 23.1398 25.3034 23.7535 24.5392C24.3497 23.7969 24.5542 23.3201 24.6086 22.8931C24.6428 22.6249 24.6428 22.3536 24.6086 22.0855C24.5542 21.6584 24.3497 21.1816 23.7535 20.4393C23.1398 19.6751 22.2328 18.7732 20.9106 17.4627L17.6527 14.2337Z" fill="#007DFC"/>
</svg>
