<svg width="20" height="21" viewBox="0 0 20 21" fill="none" xmlns="http://www.w3.org/2000/svg">
<g clip-path="url(#clip0_2015_711)">
<rect y="0.189453" width="19.9166" height="19.9161" rx="9.95805" fill="white"/>
<path d="M9.95805 20.1055C4.45822 20.1055 0 15.6473 0 10.1475V3.17687C0 2.38456 0.314745 1.6247 0.874993 1.06445C1.43524 0.504198 2.1951 0.189453 2.98741 0.189453H9.46014V4.55805C9.46014 5.55485 9.3994 6.5875 8.8766 7.43592C8.50231 8.04394 8.00163 8.56435 7.40852 8.96185C6.81541 9.35935 6.14374 9.62463 5.43909 9.73972L5.24839 9.77059C5.16977 9.79746 5.10153 9.84824 5.0532 9.91583C5.00488 9.98341 4.9789 10.0644 4.9789 10.1475C4.9789 10.2306 5.00488 10.3116 5.0532 10.3792C5.10153 10.4468 5.16977 10.4975 5.24839 10.5244L5.43909 10.5553C6.46866 10.7235 7.41941 11.2108 8.15708 11.9485C8.89475 12.6861 9.38208 13.6369 9.55027 14.6665L9.58114 14.8572C9.60801 14.9358 9.65879 15.004 9.72638 15.0523C9.79396 15.1007 9.87496 15.1266 9.95805 15.1266C10.0411 15.1266 10.1221 15.1007 10.1897 15.0523C10.2573 15.004 10.3081 14.9358 10.335 14.8572L10.3658 14.6665C10.4809 13.9618 10.7462 13.2901 11.1437 12.697C11.5412 12.1039 12.0616 11.6032 12.6696 11.2289C13.518 10.7061 14.5507 10.6454 15.5475 10.6454H19.9041C19.6437 15.9137 15.2906 20.1055 9.95805 20.1055Z" fill="#FECE25"/>
<path d="M19.9166 9.6496H15.548C14.5512 9.6496 13.5186 9.58886 12.6701 9.06606C12.0069 8.6574 11.4487 8.09912 11.04 7.43593C10.5172 6.5875 10.4565 5.55485 10.4565 4.55805V0.189458H16.9292C17.7215 0.189458 18.4814 0.504203 19.0416 1.06445C19.6019 1.6247 19.9166 2.38456 19.9166 3.17687V9.6496Z" fill="#FECE25"/>
</g>
<rect x="0.66387" y="0.853323" width="18.5889" height="18.5884" rx="9.29418" stroke="#FBE8A6" stroke-width="1.32774"/>
<defs>
<clipPath id="clip0_2015_711">
<rect y="0.189453" width="19.9166" height="19.9161" rx="9.95805" fill="white"/>
</clipPath>
</defs>
</svg>
